PathFileType	4	(X/Y/Z)	./resultDataOpenSim/trcMotMarkerGrf/sub10/qtm-02-03.trc
DataRate	CameraRate	NumFrames	NumMarkers	Units	OrigDataRate	OrigDataStartFrame	OrigNumFrames
250.000000	250.000000	11	24	m	250.000000	418	477
Frame#	Time	L.Toe.Tip			R.Toe.Tip			L.Ankle.Lat			R.Ankle.Lat			L.Ankle.Med			R.Ankle.Med			L.Heel			R.Heel			L.Knee.Lat			R.Knee.Lat			L.Knee.Med			R.Knee.Med			L.Thigh.Upper			R.Thigh.Upper			L.ASIS			R.ASIS			V.Sacral			L.Acromium			R.Acromium			C7			L.Elbow			R.Elbow			L.Wrist.Lat			R.Wrist.Lat
		X1	Y1	Z1	X2	Y2	Z2	X3	Y3	Z3	X4	Y4	Z4	X5	Y5	Z5	X6	Y6	Z6	X7	Y7	Z7	X8	Y8	Z8	X9	Y9	Z9	X10	Y10	Z10	X11	Y11	Z11	X12	Y12	Z12	X13	Y13	Z13	X14	Y14	Z14	X15	Y15	Z15	X16	Y16	Z16	X17	Y17	Z17	X18	Y18	Z18	X19	Y19	Z19	X20	Y20	Z20	X21	Y21	Z21	X22	Y22	Z22	X23	Y23	Z23	X24	Y24	Z24

418	1.668	1.6402741	0.1339769	-0.13203395	0.92596917	0.038024201	0.043054217	1.5128036	0.091840269	-0.15926533	0.79320085	0.08002363	0.084391527	1.5150307	0.11926262	-0.079369027	0.81626756	0.10028036	-0.0014418318	1.4723066	0.034834047	-0.1167148	0.73593364	0.067651789	0.040110884	1.3634659	0.45698547	-0.17646244	0.99400753	0.43210558	0.11083187	1.3791671	0.42882685	-0.056044217	1.0144896	0.42954333	-0.01668418	1.2147799	0.80718502	-0.21864954	1.0892089	0.83292483	0.15164145	1.2437183	0.91852615	-0.13900318	1.1848426	0.91764111	0.10593147	1.0208071	0.91536413	-0.072289931	1.1119697	1.3932787	-0.18049107	1.1209364	1.3815487	0.14373226	1.0281991	1.4045999	-0.019122407	0.96424445	1.0923735	-0.24128998	1.208806	1.046711	0.2378352	0.99098755	0.87177866	-0.33722882	1.4562432	1.0014553	0.22857804
419	1.672	1.644364	0.13143339	-0.13249828	0.92620247	0.038072304	0.043056235	1.5167036	0.090106347	-0.15929833	0.79432575	0.081764685	0.084555912	1.519708	0.11722368	-0.079164101	0.81739035	0.10166132	-0.0012735898	1.4758727	0.033351829	-0.11681209	0.73673276	0.070072155	0.040377744	1.370953	0.45687398	-0.17667668	0.99834926	0.4317065	0.11025258	1.3865998	0.42893837	-0.056377207	1.0196414	0.42864468	-0.017151108	1.2221941	0.80743429	-0.21912481	1.0948409	0.8320242	0.15065929	1.2509362	0.9181769	-0.13896639	1.1907575	0.91679356	0.10575256	1.0274293	0.91473427	-0.073728703	1.1175421	1.3926845	-0.18109189	1.1269183	1.3807371	0.14307931	1.0340387	1.4037556	-0.019742267	0.96890988	1.0923125	-0.24238328	1.2162603	1.0462414	0.23670427	0.99532368	0.8717443	-0.33837324	1.4634511	1.0015866	0.22734983
420	1.676	1.648052	0.12848581	-0.13293963	0.92646129	0.038110011	0.043074648	1.520132	0.088218706	-0.15930074	0.795398	0.083629273	0.084714027	1.5238885	0.11483563	-0.079007118	0.81861895	0.10311832	-0.0011063914	1.4789054	0.031754584	-0.11684278	0.73762339	0.072625515	0.040624611	1.3783951	0.45671641	-0.17689055	1.0027956	0.43132054	0.10962087	1.3941081	0.42910429	-0.056696859	1.0249137	0.4277511	-0.017645554	1.2295964	0.80769367	-0.21966699	1.1005306	0.83110583	0.14965074	1.2581865	0.91791023	-0.13897112	1.1967982	0.91594517	0.10551318	1.0342655	0.91412305	-0.075148184	1.1231135	1.3921216	-0.18170471	1.1329182	1.3799643	0.14241209	1.0399095	1.4029509	-0.020352429	0.97363364	1.0922809	-0.24349646	1.2235904	1.0458283	0.23549769	0.99974547	0.87173417	-0.33949981	1.4705381	1.0016579	0.22611923
421	1.68	1.6514086	0.12524543	-0.13347528	0.92674833	0.03813909	0.043102617	1.5231623	0.08621384	-0.15931334	0.79650115	0.085593913	0.084891695	1.5275204	0.11228642	-0.078885776	0.819963	0.10464878	-0.00094926125	1.4814526	0.030058642	-0.11678466	0.73860901	0.07531119	0.040843367	1.3857929	0.45651004	-0.17711592	1.0073569	0.43094489	0.10892726	1.4017209	0.42931422	-0.056988572	1.0303086	0.42686847	-0.018157869	1.237012	0.80794954	-0.22027529	1.1063229	0.83018948	0.1486375	1.2654707	0.91771997	-0.13903284	1.2029709	0.91508685	0.10521997	1.0414863	0.9135109	-0.07643717	1.1286922	1.3915825	-0.18232106	1.1389188	1.3792342	0.14173889	1.0458048	1.4021732	-0.020943987	0.97840789	1.0922754	-0.24462902	1.230669	1.0453902	0.23418134	1.0042626	0.87174539	-0.34063077	1.4775099	1.001668	0.2248879
422	1.684	1.6545472	0.12179892	-0.1342193	0.92706091	0.038158693	0.043129694	1.5258899	0.084139262	-0.15941381	0.79771962	0.087622562	0.085116825	1.5306415	0.10969792	-0.078753804	0.82142301	0.10625683	-0.000807837	1.4835256	0.028278606	-0.11661503	0.73969672	0.078133761	0.041030121	1.3931549	0.45624377	-0.17736673	1.0120671	0.43058814	0.10818694	1.4094237	0.42954423	-0.057256922	1.0358309	0.42600462	-0.018686118	1.2444667	0.80819736	-0.22094642	1.1122328	0.82928365	0.14763424	1.2727959	0.91759745	-0.13916444	1.2092814	0.9142126	0.10487273	1.0492031	0.91290866	-0.077411389	1.1342811	1.3910729	-0.1829324	1.1449087	1.3785507	0.14105539	1.0517093	1.4014054	-0.021529688	0.98322862	1.0922886	-0.24577735	1.2374857	1.0448803	0.23276263	1.0089045	0.87177227	-0.34177522	1.4843736	1.0016161	0.22365478
423	1.688	1.6575488	0.11818879	-0.13515602	0.92739434	0.038168189	0.043147747	1.5283825	0.08202427	-0.15963492	0.79906433	0.089713436	0.085387165	1.5333131	0.10714072	-0.078572738	0.82299705	0.10794625	-0.00068187698	1.4851089	0.026422421	-0.11626063	0.7408978	0.081098149	0.04117856	1.4004938	0.45589536	-0.17765521	1.0169553	0.43025382	0.10742817	1.4171574	0.42976176	-0.057523648	1.0414794	0.42516654	-0.01923324	1.2519682	0.80843233	-0.2216717	1.1182402	0.82838465	0.14664095	1.2801662	0.91753208	-0.13936048	1.2157349	0.91332402	0.10446572	1.0572209	0.91236682	-0.077984458	1.1398781	1.3905928	-0.18353929	1.150898	1.3779049	0.14034482	1.0576112	1.400638	-0.022131522	0.98810423	1.0923127	-0.24693384	1.2441159	1.0443133	0.23129523	1.0136885	0.87180954	-0.34292766	1.4911259	1.0015017	0.22241958
424	1.692	1.6603606	0.11439825	-0.13608862	0.92775097	0.038172667	0.043155703	1.5306165	0.079851788	-0.15986674	0.80050202	0.091907918	0.085641858	1.5356051	0.10463287	-0.078325713	0.82469138	0.10971374	-0.00056729252	1.4862012	0.024530447	-0.1156363	0.74222642	0.084202641	0.041277013	1.4078043	0.45543965	-0.17798052	1.0220187	0.42993354	0.10666046	1.4248449	0.4299372	-0.05781445	1.0472476	0.42435566	-0.019802597	1.2595009	0.8086467	-0.22243544	1.1243191	0.8274929	0.1456502	1.2875768	0.91751378	-0.13959381	1.2223271	0.91242642	0.10399639	1.0651158	0.91191696	-0.07833992	1.1454853	1.3901316	-0.18415056	1.156901	1.3772862	0.13959906	1.0635075	1.3998725	-0.022765432	0.99304415	1.0923444	-0.24810112	1.250627	1.0437037	0.2298252	1.0186141	0.8718524	-0.34407244	1.4977585	1.0013241	0.22118221
425	1.696	1.6628448	0.11038466	-0.13678204	0.92813667	0.038179459	0.043158064	1.5325243	0.07758924	-0.15993822	0.80203433	0.094240561	0.085794263	1.5375956	0.10215461	-0.078017918	0.8265225	0.11155467	-0.00046242484	1.4868809	0.022724165	-0.11479187	0.74369457	0.08744431	0.041315891	1.4150317	0.45485984	-0.17831222	1.0272477	0.42961786	0.10587629	1.4324175	0.43004516	-0.058150703	1.0531294	0.42356901	-0.020395751	1.2670459	0.80883733	-0.22322184	1.1304793	0.82660258	0.14466169	1.2950202	0.91753655	-0.13984977	1.2290411	0.91152209	0.10346677	1.0726652	0.91153141	-0.078803885	1.1511065	1.389684	-0.18477679	1.1629116	1.3766962	0.13882824	1.0694028	1.3991121	-0.023425946	0.99805096	1.0923807	-0.24928892	1.2570508	1.0430461	0.22834662	1.0236716	0.87189671	-0.34519083	1.5042745	1.0010838	0.21994024
426	1.7	1.6649728	0.10609579	-0.13714007	0.92854884	0.038192119	0.043155221	1.5341177	0.075268459	-0.15980173	0.80373223	0.096696816	0.085796381	1.5393875	0.099704777	-0.077668658	0.8285124	0.11347006	-0.00036933763	1.4873308	0.021166056	-0.11388583	0.74531432	0.090826094	0.041290648	1.4220887	0.45414891	-0.17860634	1.0326465	0.42930297	0.10507941	1.4398285	0.43005162	-0.058540075	1.0591252	0.42280118	-0.021012151	1.274604	0.80901221	-0.22402542	1.1368366	0.82566326	0.14370327	1.302496	0.91759893	-0.14014718	1.235865	0.91061074	0.10287599	1.0800131	0.91116957	-0.079545065	1.1567407	1.3892516	-0.18542173	1.1689221	1.3761412	0.13803866	1.0753038	1.3983538	-0.02408873	1.0031238	1.0924162	-0.2504938	1.2633911	1.0423378	0.22682163	1.0288462	0.87193857	-0.34628502	1.5106873	1.0007827	0.21869267
427	1.704	1.666934	0.1014215	-0.13721468	0.92898091	0.038211685	0.043139618	1.5355306	0.073040734	-0.15953887	0.80565658	0.099242192	0.085668467	1.5411593	0.09737514	-0.077300728	0.83068528	0.11546181	-0.00029067552	1.487747	0.020029987	-0.11304956	0.74710213	0.094353178	0.041185968	1.4289062	0.45330552	-0.17884954	1.0382194	0.42898506	0.1042786	1.4470638	0.42991356	-0.058964869	1.0652494	0.42204427	-0.021648868	1.2821924	0.80918634	-0.22485058	1.1436581	0.8245625	0.14283656	1.3100063	0.9177024	-0.14050215	1.2428045	0.90969596	0.10221976	1.0873999	0.9108252	-0.080507402	1.1623839	1.3888273	-0.18608088	1.1749392	1.3756172	0.13722385	1.0812147	1.3975928	-0.024739481	1.0082615	1.0924416	-0.25170004	1.2696387	1.041576	0.22522644	1.034129	0.87197117	-0.34739031	1.5170033	1.0004185	0.21744493
428	1.708	1.6690925	0.096247667	-0.13711802	0.92943611	0.038236586	0.043105235	1.5369929	0.071158899	-0.15923248	0.807773	0.10186645	0.085476085	1.5432006	0.095359088	-0.076928244	0.83307083	0.11752492	-0.00023168109	1.488245	0.01955569	-0.11242895	0.74907567	0.098026425	0.040970172	1.4354472	0.45234038	-0.17907227	1.043983	0.42865665	0.10346744	1.4541287	0.42959295	-0.059387398	1.0715278	0.42128944	-0.022302148	1.2898249	0.80937328	-0.22570347	1.1511758	0.82321265	0.14209679	1.317535	0.91785473	-0.1409014	1.2498644	0.90878405	0.10149645	1.0948996	0.91052007	-0.081554503	1.1680338	1.3884009	-0.18675232	1.1809565	1.375113	0.13638645	1.0871313	1.3968267	-0.025392522	1.0134618	1.0924441	-0.25289909	1.2757983	1.04075	0.22356175	1.0395217	0.87198472	-0.34853922	1.5232182	0.99998253	0.2162054
